<?xml version="1.0" encoding="utf-8"?>
<svg viewBox="2 2 35 30" xmlns="http://www.w3.org/2000/svg">
  <path fill="#1cccfc" d="M 20.677 4.423 C 21.232 5.288 20.501 5.698 20.501 5.698 C 20.501 5.698 19.708 6.077 19.177 5.46 C 18.462 4.628 19.142 3.986 19.142 3.986 C 19.142 3.986 19.955 3.298 20.677 4.423 Z M 37.044 32 L 36.529 31.77 L 36.83 31.856 L 36.901 31.922 C 36.934 31.935 36.962 31.943 36.986 31.946 Z M 36.917 31.881 L 36.986 31.946 C 37.075 31.957 37.11 31.907 37.09 31.82 L 19.778 12.643 C 20.007 13.691 19.693 14.363 18.079 14.269 L 36.889 31.855 L 36.771 31.802 L 36.83 31.856 Z M 9.99 19.949 C 9.99 19.949 1.151 14.482 2.067 12.322 C 2.958 10.231 10.837 14.444 11.67 14.638 C 12.504 14.834 12.968 14.306 12.983 13.938 C 13.008 13.407 11.813 11.889 12.433 11.241 C 13.05 10.595 15.069 11.854 15.069 11.854 L 16.708 12.988 L 18.079 14.269 C 17.999 14.265 17.917 14.258 17.831 14.25 L 36.771 31.802 L 11.323 20.312 L 11.411 20.582 Z M 19.297 12.11 C 19.297 12.11 16.082 8.459 16.215 7.414 C 16.349 6.368 20.619 9.705 20.619 9.705 C 20.619 9.705 21.094 10.162 21.544 10.084 C 21.995 10.008 21.513 9.26 21.513 9.26 C 21.513 9.26 20.775 7.546 21.268 7.238 C 21.763 6.933 23.013 8.223 23.013 8.223 C 23.013 8.223 23.325 8.546 23.653 8.459 C 23.98 8.37 23.804 7.651 23.804 7.651 C 23.804 7.651 21.547 2.444 22.531 2.056 C 24.034 1.461 26.173 5.769 26.891 7.111 C 27.072 7.481 37.15 31.886 37.15 31.886 L 37.09 31.82 C 37.079 31.771 37.051 31.71 37.005 31.643 L 19.748 12.514 C 19.759 12.558 19.769 12.601 19.778 12.643 Z M 11.198 8.181 C 12.027 9.177 11.163 9.705 11.163 9.705 C 11.163 9.705 10.329 10.263 9.393 9.188 C 8.374 8.023 9.29 7.416 9.29 7.416 C 9.29 7.416 10.101 6.864 11.198 8.181 Z M 11.411 20.582 L 36.529 31.77 L 12.865 25.022 Z M 36.917 31.881 L 36.889 31.855 L 36.997 31.904 Z" transform="matrix(1, 0, 0, 1, -5.551115123125783e-17, 0)"/>
</svg>
