<?xml version="1.0" encoding="utf-8"?>
<svg viewBox="0 0 460.3 200" xmlns="http://www.w3.org/2000/svg">
    <defs>
        <style>.cls-1{fill:#008ec7;}.cls-2{fill:#005b9b;}.cls-3{fill:#fff;}.cls-4{isolation:isolate;}.cls-5{fill:#ffd040;}</style>
    </defs>
    <path class="cls-1" d="M 460.3 100 L 412.6 200 L 47.7 200 L 0 100 L 47.7 0 L 412.7 0 Z M 116.4 71.9 L 116.4 95.4 L 89.4 95.4 L 89.4 71.9 L 75.6 71.9 L 75.6 131.4 L 89.4 131.4 L 89.4 107 L 116.4 107 L 116.4 131.4 L 130.2 131.4 L 130.2 71.9 Z M 156.7 131.4 L 170.6 131.4 L 170.6 83.1 L 189.6 83.1 L 189.6 71.9 L 137.7 71.9 L 137.7 83.1 L 156.7 83.1 Z M 210.1 131.4 L 223.9 131.4 L 223.9 83.1 L 242.9 83.1 L 242.9 71.9 L 191 71.9 L 191 83.1 L 210.1 83.1 Z M 276.1 71.9 L 250.3 71.9 L 250.3 131.4 L 264.1 131.4 L 264.1 115 L 276.1 115 C 280.798 115.096 285.464 114.211 289.8 112.4 C 293.462 110.823 296.589 108.218 298.8 104.9 C 300.912 101.479 301.989 97.52 301.9 93.5 C 302.002 89.447 300.925 85.452 298.8 82 C 296.589 78.682 293.462 76.077 289.8 74.5 C 285.464 72.689 280.798 71.804 276.1 71.9 Z M 275.4 103.8 L 264.2 103.8 L 264.2 83.1 L 275.4 83.1 C 279.5 83.1 282.7 84 284.8 85.8 C 286.977 87.75 288.153 90.581 288 93.5 C 288.19 96.396 287.005 99.212 284.8 101.1 C 282.6 102.9 279.4 103.8 275.4 103.8 Z M 299 139.9 L 310.7 139.9 L 338.8 59.8 L 327 59.8 Z M 389.6 120.1 L 363.6 120.1 L 377.5 107 C 381.5 103.3 384.1 100.1 385.5 97.2 C 386.899 94.336 387.618 91.187 387.6 88 C 387.687 84.649 386.706 81.357 384.8 78.6 C 382.858 75.819 380.148 73.664 377 72.4 C 373.264 70.849 369.244 70.099 365.2 70.2 C 360.3 70.107 355.443 71.133 351 73.2 C 347.099 75.029 343.752 77.858 341.3 81.4 L 351.5 87.9 C 352.843 85.962 354.67 84.411 356.8 83.4 C 359.025 82.377 361.451 81.864 363.9 81.9 C 367.1 81.9 369.5 82.5 371.1 83.8 C 372.812 85.091 373.754 87.161 373.6 89.3 C 373.584 91.048 373.137 92.765 372.3 94.3 C 370.957 96.578 369.27 98.636 367.3 100.4 L 344 122.3 L 344 131.3 L 389.6 131.3 Z" transform="matrix(1, 0, 0, 1, 1.7763568394002505e-15, 0)"/>
</svg>
