<?xml version="1.0" encoding="utf-8"?>
<svg viewBox="0 0 70 70" style="enable-background:new 0 0 70 70;" xmlns="http://www.w3.org/2000/svg">
    <path d="M 0.8 41.2 L 6.828 30.005 L 0 27.7 L 10.1 0 L 32.1 2.7 L 39.677 11.364 L 48.2 1.1 L 70 18.7 L 68.7 59.2 L 41.8 70 L 27.033 60.52 L 5.6 68.3 L 10.1 52.5 L 11.062 49.337 Z M 17.7 51.3 L 33.9 51.3 L 33.9 48.6 L 17.7 48.6 Z M 29.4 22.4 L 29.4 19.1 L 20.4 19.1 L 20.4 22.4 L 23 22.4 L 23 33.7 L 20.4 33.7 L 20.4 37 L 29.4 37 L 29.4 33.7 L 26.9 33.7 L 26.9 22.4 Z M 40.6 36.8 C 41.4 36.6 42.1 36.1 42.6 35.6 C 43.2 35 43.6 34.4 43.9 33.6 C 44.2 32.8 44.3 31.9 44.3 30.8 L 44.3 19.1 L 40.3 19.1 L 40.3 30.6 C 40.3 31.7 40.1 32.4 39.7 32.9 C 39.2 33.4 38.6 33.6 37.9 33.6 C 37.3 33.6 36.7 33.4 36.2 33.1 C 35.7 32.8 35.2 32.4 34.7 31.8 L 32.2 34.6 C 32.8 35.3 33.6 36 34.5 36.5 C 35.4 37 36.6 37.3 38 37.3 C 39 37.3 39.8 37.1 40.6 36.8 Z" style="fill:#000000;" transform="matrix(1, 0, 0, 1, 0, -4.440892098500626e-16)"/>
</svg>
