<svg xmlns="http://www.w3.org/2000/svg" version="1.1" width="460px" height="460px"
     style="shape-rendering:geometricPrecision; text-rendering:geometricPrecision; image-rendering:optimizeQuality; fill-rule:evenodd; clip-rule:evenodd"
>
    <g>
        <path style="opacity:0.979" fill="#000000"
              d="M 216.5,8.5 C 241.88,5.44143 261.047,14.7748 274,36.5C 286.633,65.9333 279.799,89.7666 253.5,108C 228.313,119.934 205.98,116.101 186.5,96.5C 171.007,76.2529 169.507,54.9195 182,32.5C 190.914,20.6388 202.414,12.6388 216.5,8.5 Z"/>
    </g>
    <g>
        <path style="opacity:0.944" fill="#000000"
              d="M 141.5,68.5 C 152.824,67.3256 157.991,72.3256 157,83.5C 155.954,85.0905 154.787,86.5905 153.5,88C 79.263,126.266 44.0963,187.433 48,271.5C 44.3596,277.827 39.0263,279.827 32,277.5C 29.3045,275.801 27.3045,273.468 26,270.5C 21.3189,203.988 42.8189,147.988 90.5,102.5C 98.3195,96.0913 106.32,89.9246 114.5,84C 123.641,79.013 132.641,73.8463 141.5,68.5 Z"/>
    </g>
    <g>
        <path style="opacity:0.943" fill="#000000"
              d="M 306.5,68.5 C 349.313,86.474 381.479,116.141 403,157.5C 422.24,194.14 429.24,233.14 424,274.5C 419.872,280.485 414.372,281.985 407.5,279C 405.383,277.269 403.883,275.102 403,272.5C 408.476,198.624 380.643,141.124 319.5,100C 312.336,95.8337 305.169,91.667 298,87.5C 293.228,77.7139 296.061,71.3806 306.5,68.5 Z"/>
    </g>
    <g>
        <path style="opacity:0.946" fill="#000000"
              d="M 216.5,229.5 C 263.271,227.77 305.937,239.77 344.5,265.5C 350.35,272.708 349.683,279.208 342.5,285C 339.167,285.667 335.833,285.667 332.5,285C 270.587,244.191 206.587,240.858 140.5,275C 135.286,279.776 129.286,283.276 122.5,285.5C 113.419,283.346 109.919,277.679 112,268.5C 116.339,264.076 121.172,260.243 126.5,257C 154.601,241.465 184.601,232.298 216.5,229.5 Z"/>
    </g>
    <g>
        <path style="opacity:0.959" fill="#000000"
              d="M 67.5,286.5 C 102.144,288.978 121.144,307.478 124.5,342C 122.64,366.395 110.64,383.728 88.5,394C 63.8559,402.376 43.0225,396.876 26,377.5C 15.1088,360.835 12.4422,342.835 18,323.5C 27.3245,301.283 43.8245,288.95 67.5,286.5 Z M 67.5,309.5 C 88.5243,311.191 99.8576,322.524 101.5,343.5C 80.1667,343.5 58.8333,343.5 37.5,343.5C 38.7286,324.279 48.7286,312.945 67.5,309.5 Z"/>
    </g>
    <g>
        <path style="opacity:0.949" fill="#000000"
              d="M 387.5,291.5 C 416.758,292.591 435.258,307.257 443,335.5C 445.79,364.89 433.623,385.057 406.5,396C 380.95,401.931 360.45,394.431 345,373.5C 331.138,344.442 336.638,319.942 361.5,300C 369.779,295.678 378.446,292.845 387.5,291.5 Z M 387.5,314.5 C 407.064,315.442 418.398,325.609 421.5,345C 417.528,368.298 403.862,377.965 380.5,374C 360.688,363.868 355.522,348.701 365,328.5C 370.81,320.858 378.31,316.191 387.5,314.5 Z"/>
    </g>
    <g>
        <path style="opacity:0.947" fill="#000000"
              d="M 113.5,395.5 C 116.187,395.336 118.854,395.503 121.5,396C 152.798,417.806 187.632,428.973 226,429.5C 250.695,428.548 274.528,423.714 297.5,415C 308.231,409.182 318.898,403.182 329.5,397C 340.365,396.543 344.865,401.71 343,412.5C 342.004,414.744 340.504,416.577 338.5,418C 264.447,463.355 190.114,463.855 115.5,419.5C 107.216,415.486 104.716,409.152 108,400.5C 109.73,398.598 111.563,396.931 113.5,395.5 Z"/>
    </g>
</svg>
