<svg xmlns="http://www.w3.org/2000/svg" version="1.1" viewBox="-5.0 -10.0 110.0 135.0">
    <path d="m91.211 16.891c-16.059-8.8906-28.77-12.852-41.211-12.852s-25.152 3.9648-41.211 12.852c-0.46094 0.25391-0.74219 0.73828-0.74219 1.2617v30.035c0 11.914 4.9062 21.484 14.578 28.438l26.535 19.07c0.25 0.17969 0.54688 0.26953 0.84375 0.26953 0.29297 0 0.58984-0.089844 0.84375-0.26953l26.535-19.07c9.6758-6.9531 14.582-16.52 14.582-28.438l-0.007813-30.035c0-0.52734-0.28516-1.0078-0.74609-1.2617zm-2.1367 31.293c0 10.934-4.5039 19.715-13.379 26.094l-25.695 18.469-25.695-18.469c-8.8789-6.3789-13.379-15.16-13.379-26.094v-29.18c29.473-16.137 48.672-16.133 78.145 0zm-74.141-25.918v25.918c0 4.8047 0.98047 9.1523 2.918 12.926 1.9375 3.7773 4.8945 7.1094 8.793 9.9141l22.516 16.18c0.25 0.17969 0.54688 0.26953 0.84375 0.26953 0.29297 0 0.58984-0.089844 0.84375-0.26953l22.512-16.18c3.8984-2.8047 6.8594-6.1406 8.793-9.9141 1.9375-3.7773 2.918-8.125 2.918-12.926v-25.918c0-0.53516-0.29687-1.0312-0.77344-1.2773-25.641-13.406-42.945-13.406-68.586 0-0.48047 0.25-0.77734 0.74219-0.77734 1.2773zm2.8828 0.875c23.961-12.348 40.406-12.348 64.367 0v25.043c0 8.7109-3.4375 15.414-10.512 20.5l-21.672 15.578-21.672-15.578c-7.0742-5.082-10.512-11.789-10.512-20.5zm10.055 27.164c0.53516 2.1172 1.3711 4.1289 2.4883 6.0078l-2.1719 2.1719c-0.5625 0.5625-0.5625 1.4766 0 2.0391l5.9453 5.9453c0.26953 0.26953 0.63672 0.42188 1.0195 0.42188 0.38281 0 0.75-0.15234 1.0195-0.42188l2.1719-2.1719c1.8789 1.1172 3.8906 1.9531 6.0078 2.4883v3.0664c0 0.79688 0.64453 1.4414 1.4414 1.4414h8.4102c0.79688 0 1.4414-0.64453 1.4414-1.4414v-3.0664c2.1172-0.53516 4.1289-1.3711 6.0078-2.4883l2.1719 2.1719c0.26953 0.26953 0.63672 0.42188 1.0195 0.42188s0.75-0.15234 1.0195-0.42188l5.9453-5.9453c0.26953-0.26953 0.42188-0.63672 0.42188-1.0195 0-0.38281-0.15234-0.75-0.42188-1.0195l-2.1719-2.1719c1.1172-1.8789 1.9531-3.8906 2.4883-6.0078h3.0703c0.79688 0 1.4414-0.64453 1.4414-1.4414v-8.4102c0-0.79688-0.64453-1.4414-1.4414-1.4414h-3.0703c-0.53516-2.1172-1.3711-4.1289-2.4883-6.0078l2.1719-2.1719c0.5625-0.5625 0.5625-1.4766 0-2.0391l-5.9453-5.9453c-0.26953-0.26953-0.63672-0.42188-1.0195-0.42188s-0.75 0.15234-1.0195 0.42188l-2.1719 2.1719c-1.8789-1.1172-3.8906-1.9531-6.0078-2.4883v-3.0703c0-0.79688-0.64453-1.4414-1.4414-1.4414h-8.4102c-0.79688 0-1.4414 0.64453-1.4414 1.4414v3.0703c-2.1172 0.53516-4.1289 1.3711-6.0078 2.4883l-2.1719-2.1719c-0.5625-0.5625-1.4766-0.5625-2.0391 0l-5.9453 5.9453c-0.26953 0.26953-0.42188 0.63672-0.42188 1.0195s0.15234 0.75 0.42188 1.0195l2.1719 2.1719c-1.1172 1.8789-1.9531 3.8906-2.4883 6.0078h-3.0664c-0.79688 0-1.4414 0.64453-1.4414 1.4414v8.4102c0 0.79688 0.64453 1.4414 1.4414 1.4414zm-1.625-8.4102h2.7773c0.6875 0 1.2812-0.48438 1.4141-1.1602 0.51172-2.5586 1.5039-4.957 2.957-7.1328 0.38281-0.57031 0.30469-1.332-0.17969-1.8203l-1.9648-1.9648 3.9062-3.9062 1.9648 1.9648c0.48828 0.48438 1.2461 0.5625 1.8203 0.17969 2.1758-1.4531 4.5742-2.4453 7.1328-2.957 0.67578-0.13281 1.1602-0.72656 1.1602-1.4141v-2.7773h5.5273v2.7773c0 0.6875 0.48438 1.2812 1.1602 1.4141 2.5586 0.51172 4.957 1.5039 7.1328 2.957 0.57422 0.38281 1.332 0.30469 1.8203-0.17969l1.9648-1.9648 3.9062 3.9062-1.9648 1.9648c-0.48828 0.48828-0.5625 1.2461-0.17969 1.8203 1.4531 2.1758 2.4453 4.5742 2.957 7.1328 0.13281 0.67578 0.72656 1.1602 1.4141 1.1602h2.7773v5.5273h-2.7773c-0.6875 0-1.2812 0.48438-1.4141 1.1602-0.51172 2.5586-1.5039 4.957-2.957 7.1328-0.38281 0.57031-0.30469 1.332 0.17969 1.8203l1.9648 1.9648-3.9062 3.9062-1.9648-1.9648c-0.48438-0.48828-1.2461-0.5625-1.8203-0.17969-2.1758 1.4531-4.5781 2.4453-7.1328 2.957-0.67578 0.13281-1.1602 0.72656-1.1602 1.4141v2.7773h-5.5273v-2.7773c0-0.6875-0.48438-1.2812-1.1602-1.4141-2.5586-0.51172-4.957-1.5039-7.1367-2.957-0.57031-0.38281-1.332-0.30469-1.8203 0.17969l-1.9648 1.9648-3.9062-3.9062 1.9648-1.9648c0.48828-0.48828 0.5625-1.2461 0.17969-1.8203-1.4531-2.1758-2.4453-4.5781-2.957-7.1367-0.13281-0.67578-0.72656-1.1602-1.4141-1.1602h-2.7773zm23.754 18.371c8.6055 0 15.605-7 15.605-15.605 0-8.6055-7-15.609-15.605-15.609s-15.605 7-15.605 15.605c0 8.6094 7 15.609 15.605 15.609zm-1.6836-3v-4.4922c0-0.59766-0.36719-1.1289-0.92188-1.3477-2.6484-1.0195-4.6445-3.9297-4.6445-6.7695 0-1.7812 0.53125-3.1406 1.2656-4.1719v3.9844c0 0.51562 0.27344 0.99219 0.72266 1.25l4.5469 2.625c0.44531 0.25781 0.99609 0.25781 1.4414 0l4.5469-2.625c0.44531-0.25781 0.72266-0.73438 0.72266-1.25v-3.9844c0.73438 1.0312 1.2656 2.3906 1.2656 4.168 0 2.8398-1.9961 5.75-4.6445 6.7695-0.55469 0.21484-0.92188 0.75-0.92188 1.3477v4.4922c-0.5625 0.078125-1.125 0.12109-1.6953 0.12109s-1.1328-0.042968-1.6836-0.11719zm1.6836-25.328c7.0156 0 12.723 5.707 12.723 12.723 0 5.4062-3.3906 10.031-8.1562 11.871v-2.8281c3.2773-1.6992 5.5703-5.3516 5.5703-9.043 0-3.6562-1.7188-6.7266-4.8359-8.6406-0.44531-0.27344-1.0039-0.28516-1.4609-0.03125-0.45703 0.25391-0.73828 0.73828-0.73828 1.2578v6.3945l-3.1016 1.7891-3.1055-1.793v-6.3906c0-0.52344-0.28125-1.0039-0.73828-1.2578-0.45703-0.25391-1.0156-0.24219-1.4609 0.03125-3.1172 1.918-4.8359 4.9844-4.8359 8.6406 0 3.6953 2.293 7.3438 5.5703 9.043v2.8281c-4.7656-1.8398-8.1562-6.4648-8.1562-11.871 0.003906-7.0156 5.7109-12.723 12.727-12.723z"/>
</svg>
