<?xml version="1.0" standalone="no"?>
<!DOCTYPE svg PUBLIC "-//W3C//DTD SVG 20010904//EN"
 "http://www.w3.org/TR/2001/REC-SVG-20010904/DTD/svg10.dtd">
<svg version="1.0" xmlns="http://www.w3.org/2000/svg"
 width="620.000000pt" height="620.000000pt" viewBox="0 0 620.000000 620.000000"
 preserveAspectRatio="xMidYMid meet">
<metadata>
Created by potrace 1.14, written by Peter Selinger 2001-2017
</metadata>
<g transform="translate(0.000000,620.000000) scale(0.100000,-0.100000)"
fill="#000000" stroke="none">
<path d="M2703 5878 c-4 -7 -8 -16 -9 -20 -1 -5 -3 -10 -4 -13 -1 -3 -3 -8 -4
-12 -9 -39 -108 -212 -149 -260 -142 -168 -312 -274 -527 -328 -220 -55 -327
-116 -420 -235 -19 -25 -37 -47 -40 -50 -3 -3 -11 -17 -19 -32 -8 -15 -22 -37
-33 -47 -10 -11 -18 -23 -18 -27 0 -3 -9 -19 -21 -35 -19 -27 -150 -278 -151
-289 0 -3 -4 -15 -9 -28 -5 -13 -9 -25 -9 -26 0 -2 -8 -21 -17 -42 -9 -22 -17
-41 -18 -44 -1 -3 -4 -12 -7 -20 -8 -20 -42 -132 -44 -145 -1 -5 -7 -30 -14
-55 -13 -47 -17 -66 -25 -115 -3 -16 -8 -37 -10 -45 -17 -65 -37 -280 -38
-425 -3 -410 85 -792 275 -1186 70 -145 222 -390 282 -455 6 -7 20 -24 31 -39
56 -78 262 -289 352 -362 27 -21 53 -42 59 -48 6 -5 20 -16 30 -23 11 -7 62
-43 115 -80 53 -37 109 -74 125 -82 16 -8 35 -21 42 -28 7 -6 20 -12 28 -12 8
0 14 -4 14 -9 0 -8 37 -24 53 -22 4 1 7 -4 7 -10 0 -5 4 -7 10 -4 6 3 10 2 10
-4 0 -10 38 -27 53 -23 4 1 7 -3 7 -8 0 -6 4 -10 9 -10 5 0 20 -4 33 -9 13 -5
26 -9 30 -10 5 -1 24 -10 43 -21 20 -11 41 -20 48 -20 7 0 23 -6 37 -13 14 -7
77 -28 140 -45 63 -18 129 -37 145 -42 17 -5 46 -11 65 -14 19 -3 46 -8 60
-11 14 -3 43 -7 65 -10 22 -3 56 -8 75 -10 184 -25 465 -25 630 0 226 34 399
78 421 107 15 19 33 67 46 118 12 46 4 138 -14 178 -11 24 -23 43 -26 43 -4
-1 -23 6 -43 14 -20 8 -38 15 -40 15 -2 0 -28 11 -59 25 -30 14 -57 26 -60 26
-9 1 -340 171 -365 188 -14 9 -38 23 -55 31 -16 8 -55 32 -85 52 -30 21 -60
38 -67 38 -6 0 -13 3 -15 8 -5 10 -97 72 -108 72 -6 0 -10 3 -10 8 0 4 -25 23
-55 42 -30 19 -54 38 -55 43 0 4 -6 7 -14 7 -8 0 -16 7 -20 15 -3 8 -12 15
-20 15 -7 0 -16 7 -20 15 -3 8 -10 15 -16 15 -5 0 -18 8 -28 17 -10 10 -34 30
-53 46 -112 90 -301 273 -399 386 -84 97 -260 342 -260 362 0 4 -6 14 -12 21
-14 14 -59 103 -113 223 -47 104 -117 326 -131 415 -29 188 -32 230 -29 410 3
182 6 227 20 290 3 14 7 39 10 55 3 17 8 44 11 60 3 17 7 37 8 45 1 8 5 24 9
35 3 11 8 31 11 45 2 14 14 54 26 90 12 36 23 70 25 75 1 6 5 18 9 27 4 9 9
22 10 30 3 12 6 22 23 66 3 9 7 19 7 22 1 3 7 14 13 25 6 11 12 25 13 30 1 6
11 30 22 55 12 25 22 47 23 50 2 3 6 15 10 28 4 12 11 22 16 22 4 0 13 16 20
35 7 19 17 35 21 35 4 0 8 7 8 15 0 8 5 15 10 15 6 0 10 5 10 10 0 6 5 16 10
23 12 14 34 42 70 87 59 75 225 230 248 230 6 0 12 4 12 9 0 5 25 24 56 42
l55 34 -6 55 c-8 68 -42 145 -83 186 -36 36 -123 94 -149 99 -10 2 -19 4 -20
5 -2 2 -7 4 -13 5 -5 1 -11 3 -12 5 -2 1 -10 3 -19 5 -9 1 -26 6 -37 9 -12 4
-24 2 -29 -6z"/>
</g>
</svg>
